<svg xmlns="http://www.w3.org/2000/svg" viewBox="0 0 256 256">
  <defs>
    <radialGradient id="glowC" cx="50%" cy="50%" r="50%">
      <stop offset="0%" stop-color="#4F46E5" stop-opacity="0.3"/>
      <stop offset="60%" stop-color="#7C3AED" stop-opacity="0.1"/>
      <stop offset="100%" stop-color="#0F1B2D" stop-opacity="0"/>
    </radialGradient>
  </defs>
  <rect width="256" height="256" rx="56" fill="#0F1B2D"/>
  <rect width="256" height="256" rx="56" fill="url(#glowC)"/>
  <!-- Gear behind -->
  <g transform="translate(152,152)">
    <circle cx="0" cy="0" r="22" fill="none" stroke="#E2E8F0" stroke-width="5"/>
    <circle cx="0" cy="0" r="8" fill="#0F1B2D" stroke="#E2E8F0" stroke-width="3"/>
    <rect x="-3" y="-27" width="6" height="10" rx="2" fill="#E2E8F0"/>
    <rect x="-3" y="17" width="6" height="10" rx="2" fill="#E2E8F0"/>
    <rect x="-27" y="-3" width="10" height="6" rx="2" fill="#E2E8F0"/>
    <rect x="17" y="-3" width="10" height="6" rx="2" fill="#E2E8F0"/>
    <rect x="12" y="-19" width="6" height="10" rx="2" fill="#E2E8F0" transform="rotate(45)"/>
    <rect x="-18" y="9" width="6" height="10" rx="2" fill="#E2E8F0" transform="rotate(45)"/>
    <rect x="9" y="12" width="10" height="6" rx="2" fill="#E2E8F0" transform="rotate(45)"/>
    <rect x="-19" y="-18" width="10" height="6" rx="2" fill="#E2E8F0" transform="rotate(45)"/>
  </g>
  <!-- Hammer -->
  <g transform="translate(112,104) rotate(-30)">
    <rect x="-5" y="-6" width="10" height="68" rx="3" fill="#FFFFFF"/>
    <rect x="-22" y="-34" width="44" height="28" rx="4" fill="#FFFFFF"/>
  </g>
</svg>
