<svg xmlns="http://www.w3.org/2000/svg" viewBox="0 0 48 48">
  <rect width="48" height="48" rx="10" fill="#DE2910"/>
  <polygon points="16,12 17.4,16.1 21.7,16.1 18.2,18.7 19.5,22.9 16,20.3 12.5,22.9 13.8,18.7 10.3,16.1 14.6,16.1" fill="#FFDE00"/>
  <polygon points="27,8 27.4,9.2 28.7,9.2 27.6,9.9 28,11.1 27,10.4 26,11.1 26.4,9.9 25.3,9.2 26.6,9.2" fill="#FFDE00"/>
  <polygon points="30,13 30.4,14.2 31.7,14.2 30.6,14.9 31,16.1 30,15.4 29,16.1 29.4,14.9 28.3,14.2 29.6,14.2" fill="#FFDE00"/>
  <polygon points="30,20 30.4,21.2 31.7,21.2 30.6,21.9 31,23.1 30,22.4 29,23.1 29.4,21.9 28.3,21.2 29.6,21.2" fill="#FFDE00"/>
  <polygon points="27,25 27.4,26.2 28.7,26.2 27.6,26.9 28,28.1 27,27.4 26,28.1 26.4,26.9 25.3,26.2 26.6,26.2" fill="#FFDE00"/>
</svg>
